<svg xmlns="http://www.w3.org/2000/svg" width="163" height="87" viewBox="0 0 163 87" fill="none"><g id="Isolation_Mode" clip-path="url(#clip0_4043_62320)"><g id="Clip path group"><mask id="mask0_4043_62320" style="mask-type:luminance" maskUnits="userSpaceOnUse" x="0" y="0" width="163" height="87"><g id="clippath"><path id="Vector" d="M163 0H0V87H163V0Z" fill="white"></path></g></mask><g mask="url(#mask0_4043_62320)"><g id="Group"><path id="Vector_2" d="M0 0V50.3479C0 61.4136 8.22708 71.0552 13.1385 75.8176C20.3508 82.8134 28.0588 87 31.3357 87C34.6126 87 42.3207 82.8134 49.5329 75.8176C54.4366 71.0552 62.6715 61.4214 62.6715 50.3479V0H0Z" fill="#003767"></path><path id="Vector_3" d="M18.8398 48.418C19.3744 41.9202 24.7351 36.7998 31.3354 36.7998C37.9357 36.7998 43.2964 41.9202 43.831 48.418H18.8398Z" fill="#FFDD00"></path><path id="Vector_4" d="M60.0845 48.418V30.3176L42.5303 41.3366C43.9712 43.3598 44.9008 45.78 45.1022 48.418H60.0845Z" fill="white"></path><path id="Vector_5" d="M60.0842 28.8859V2.90259H56.5207L38.2383 37.438C39.5707 38.224 40.7482 39.2278 41.7476 40.4029L60.0842 28.8936V28.8859Z" fill="#FFDD00"></path><path id="Vector_6" d="M40.9963 2.90259H21.6758L26.8274 27.2283H35.8446L40.9963 2.90259Z" fill="#FFDD00"></path><path id="Vector_7" d="M24.5415 37.3835L6.29008 2.90259H2.72656V28.987L20.916 40.4029C21.9463 39.1967 23.1626 38.1695 24.5415 37.3758" fill="#FFDD00"></path><path id="Vector_8" d="M20.1336 41.3445L2.72656 30.4189V48.4181H17.5694C17.7631 45.7879 18.6927 43.3756 20.1336 41.3523" fill="white"></path><path id="Vector_9" d="M31.3752 48.3792L31.3125 48.4106V48.4185H31.3674L31.3752 48.3792Z" fill="#FCEE23"></path><path id="Vector_10" d="M31.3359 47.64L31.4057 47.7645L31.4289 47.7256L31.3592 47.6089L31.3359 47.64Z" fill="#FCEE23"></path><path id="Vector_11" d="M60.0837 50.0679H2.72656V50.1068C2.72656 60.262 10.3726 69.2421 14.9355 73.6777C21.8998 80.4712 28.9804 84.0819 31.4129 84.0819C33.8454 84.0819 40.9259 80.4634 47.8825 73.6777C52.4454 69.2343 60.0915 60.262 60.0915 50.1068V50.0679H60.0837Z" fill="#FFDD00"></path><path id="Vector_12" d="M55.1566 2.90259H42.2273L37.0757 27.2283H25.5872L20.4433 2.90259H7.66113L25.6182 36.8232C26.2147 36.5431 26.8422 36.333 27.4851 36.1385L27.2527 35.0334H35.4333L35.2009 36.1385C35.8827 36.3408 36.5411 36.582 37.1764 36.8777L55.1566 2.90259Z" fill="white"></path><path id="Vector_13" d="M26.9119 7.5249V23.9444H10.4268V32.8312H26.9119V75.2028H35.7587V32.8312H52.2439V23.9444H35.7587V7.5249H26.9119Z" fill="#003767"></path><path id="Vector_14" d="M49.4322 26.7691H32.9471V10.3496H29.7322V26.7691H13.2393V29.9985H29.7322L29.7244 72.3702H32.9471V29.9985H49.4322V26.7691Z" fill="#FFDD00"></path><path id="Vector_15" d="M75.3146 7.47827H71.7588V26.6447H75.3146V7.47827Z" fill="#003767"></path><path id="Vector_16" d="M77.2432 12.2407H80.3109V13.8982C81.0468 12.443 81.9377 11.8594 83.7892 11.8594C85.2378 11.8594 86.2991 12.5753 86.733 13.6725C87.6238 12.373 88.5612 11.8594 90.0331 11.8594C92.2874 11.8594 93.4572 13.1045 93.4572 15.5791V26.6369H90.2113V17.4389C90.2113 15.5557 90.0563 14.7386 88.5844 14.7386C87.2907 14.7386 86.9886 15.6024 86.9886 17.3611V26.6369H83.7195V17.2833C83.7195 15.5246 83.4406 14.7386 82.1934 14.7386C80.9461 14.7386 80.5201 15.5557 80.5201 17.2366V26.6369H77.2509V12.2407H77.2432Z" fill="#003767"></path><path id="Vector_17" d="M95.4248 12.2407H98.4925V13.8982C99.2285 12.443 100.119 11.8594 101.971 11.8594C103.419 11.8594 104.481 12.5753 104.915 13.6725C105.805 12.373 106.743 11.8594 108.215 11.8594C110.469 11.8594 111.639 13.1045 111.639 15.5791V26.6369H108.393V17.4389C108.393 15.5557 108.238 14.7386 106.766 14.7386C105.472 14.7386 105.17 15.6024 105.17 17.3611V26.6369H101.901V17.2833C101.901 15.5246 101.622 14.7386 100.375 14.7386C99.1278 14.7386 98.7017 15.5557 98.7017 17.2366V26.6369H95.4326V12.2407H95.4248Z" fill="#003767"></path><path id="Vector_18" d="M125.126 12.2407H128.372V13.6959C129.061 12.4975 130.076 11.8594 131.37 11.8594C133.423 11.8594 134.593 13.0578 134.593 15.3223V26.6369H131.393V16.9798C131.393 15.4234 131.091 14.6842 129.999 14.6842C128.806 14.6842 128.449 15.6024 128.449 17.4622V26.6369H125.126V12.2407Z" fill="#003767"></path><path id="Vector_19" d="M157.708 21.6955C157.708 21.8978 157.732 22.0768 157.732 22.2558C157.732 25.5708 156.213 27.0182 152.859 27.0182C151.108 27.0182 149.915 26.6135 149.133 25.6408C147.893 24.139 147.862 22.0223 147.862 18.9641C147.862 16.3883 147.94 14.583 148.955 13.3534C149.791 12.334 151.139 11.8516 152.936 11.8516C154.734 11.8516 155.981 12.3885 156.818 13.4779C157.732 14.6997 157.809 16.4117 157.809 18.8085V19.9057H151.286C151.263 20.1858 151.263 20.4893 151.263 20.8239C151.263 23.3997 151.643 24.5203 152.913 24.5203C154.184 24.5203 154.587 23.6254 154.587 21.6955H157.708ZM154.486 17.6178V17.0031C154.486 15.1666 154.153 14.404 152.859 14.404C151.565 14.404 151.232 15.1899 151.232 17.0031C151.232 17.0809 151.255 17.2832 151.255 17.6178H154.478H154.486Z" fill="#003767"></path><path id="Vector_20" d="M163 7.47827H159.7V26.6447H163V7.47827Z" fill="#003767"></path><path id="Vector_21" d="M82.7508 68.1604C82.7508 68.4172 82.774 68.6429 82.774 68.8997C82.774 73.3353 80.9458 75.4519 77.1189 75.4519C75.3449 75.4519 74.0511 75.0161 73.0828 73.9967C71.456 72.3158 71.332 69.5611 71.332 65.18C71.332 61.507 71.5877 59.0869 72.2926 57.8651C73.3307 56.0831 74.8026 55.3672 77.1111 55.3672C80.9923 55.3672 82.6423 57.3048 82.6656 61.7638H79.2183V61.3047C79.2183 59.2425 78.5598 58.2231 77.1886 58.2231C74.9808 58.2231 74.9808 60.2386 74.9808 65.1333C74.9808 70.4871 74.9808 72.5493 77.1654 72.5493C78.8619 72.5493 79.2957 71.3509 79.2957 68.4172V68.1604H82.743H82.7508Z" fill="#003767"></path><path id="Vector_22" d="M89.3439 60.2151C93.4032 60.2151 94.3948 62.4562 94.3948 67.8101C94.3948 73.1639 93.4032 75.3817 89.3439 75.3817C85.2846 75.3817 84.293 73.1639 84.293 67.8101C84.293 62.4562 85.2846 60.2151 89.3439 60.2151ZM87.6938 67.9813C87.6938 71.522 87.717 72.8215 89.3129 72.8215C90.9087 72.8215 90.9862 71.5998 90.9862 68.4638V67.063C90.9862 64.0826 90.9087 62.7831 89.3361 62.7831C87.7635 62.7831 87.6861 64.0048 87.6861 66.6584V67.9813H87.6938Z" fill="#003767"></path><path id="Vector_23" d="M99.4535 55.8262H96.1533V74.9926H99.4535V55.8262Z" fill="#003767"></path><path id="Vector_24" d="M104.512 55.8262H101.212V74.9926H104.512V55.8262Z" fill="#003767"></path><path id="Vector_25" d="M116.117 70.0514C116.117 70.2538 116.14 70.4327 116.14 70.6117C116.14 73.9267 114.622 75.3742 111.267 75.3742C109.516 75.3742 108.323 74.9695 107.541 73.9968C106.302 72.4949 106.271 70.3783 106.271 67.32C106.271 64.7443 106.348 62.9389 107.363 61.7094C108.199 60.69 109.547 60.2075 111.345 60.2075C113.142 60.2075 114.389 60.7445 115.226 61.8417C116.14 63.0634 116.217 64.7754 116.217 67.1644V68.2616H109.695C109.671 68.5418 109.671 68.8453 109.671 69.1799C109.671 71.7556 110.051 72.8762 111.321 72.8762C112.592 72.8762 112.995 71.9813 112.995 70.0514H116.117ZM112.894 65.9738V65.359C112.894 63.5225 112.561 62.7599 111.267 62.7599C109.973 62.7599 109.64 63.5459 109.64 65.359C109.64 65.4369 109.664 65.6392 109.664 65.9738H112.886H112.894Z" fill="#003767"></path><path id="Vector_26" d="M126.986 78.1287C126.25 79.2259 124.755 79.8407 122.647 79.8407C119.781 79.8407 118.255 78.6656 118.232 76.5801H121.532C121.555 77.1404 122.012 77.475 122.748 77.475C124.119 77.475 124.445 76.6579 124.445 74.7747V73.7787C123.887 74.8526 122.996 75.3817 121.733 75.3817C118.635 75.3817 117.93 73.0861 117.93 67.7323C117.93 62.3784 118.766 60.2151 121.71 60.2151C123.105 60.2151 124.096 60.8532 124.631 62.0983V60.5964H127.776V73.8487C127.776 75.6852 127.729 77.0626 126.993 78.1287M121.3 68.0358C121.3 71.1485 121.4 72.5725 122.818 72.5725C124.491 72.5725 124.545 70.8138 124.545 66.8685C124.545 64.1137 124.321 62.9698 122.818 62.9698C121.315 62.9698 121.3 64.5028 121.3 68.0435" fill="#003767"></path><path id="Vector_27" d="M139.333 70.0514C139.333 70.2538 139.357 70.4327 139.357 70.6117C139.357 73.9267 137.831 75.3742 134.484 75.3742C132.733 75.3742 131.54 74.9695 130.758 73.9968C129.518 72.4949 129.487 70.3783 129.487 67.32C129.487 64.7443 129.565 62.9389 130.58 61.7094C131.416 60.69 132.764 60.2075 134.561 60.2075C136.359 60.2075 137.606 60.7445 138.443 61.8417C139.357 63.0634 139.434 64.7754 139.434 67.1644V68.2616H132.911C132.888 68.5418 132.888 68.8453 132.888 69.1799C132.888 71.7556 133.268 72.8762 134.538 72.8762C135.809 72.8762 136.212 71.9813 136.212 70.0514H139.333ZM136.119 65.9738V65.359C136.119 63.5225 135.785 62.7599 134.492 62.7599C133.198 62.7599 132.873 63.5459 132.873 65.359C132.873 65.4369 132.896 65.6392 132.896 65.9738H136.119Z" fill="#003767"></path><path id="Vector_28" d="M142.982 12.2097V21.7112C142.982 23.6333 142.471 24.5204 141.255 24.5204C140.038 24.5204 139.527 23.6255 139.527 21.6879V12.2019H136.382V22.2481C136.382 25.5632 137.9 27.0106 141.255 27.0106C144.609 27.0106 146.127 25.5554 146.127 22.2481C146.127 22.1625 146.127 12.2019 146.127 12.2019H142.982V12.2097Z" fill="#003767"></path><path id="Vector_29" d="M117.077 27.0182C118.348 27.0182 119.231 26.4813 119.788 25.4152V26.4113C119.788 26.5513 119.788 26.6836 119.788 26.8159H123.096C123.112 26.4035 123.12 25.9677 123.12 25.493V12.2407H119.974V13.7426C119.44 12.4975 118.448 11.8594 117.054 11.8594C114.11 11.8594 113.273 14.1239 113.273 19.3765C113.273 24.6292 113.986 27.026 117.077 27.026M118.162 14.6141C119.657 14.6141 119.889 15.758 119.889 18.5128C119.889 22.4659 119.835 24.2168 118.162 24.2168C116.736 24.2168 116.636 22.7927 116.636 19.68C116.636 16.1393 116.713 14.6063 118.162 14.6063" fill="#003767"></path><path id="Vector_30" d="M71.7969 31.6562H75.3526V47.5622H81.767V50.8227H71.7969V31.6562Z" fill="#003767"></path><path id="Vector_31" d="M103.497 31.6562H106.797V37.796C107.378 36.6755 108.447 36.0373 109.741 36.0373C111.794 36.0373 112.964 37.2357 112.964 39.5002V50.8149H109.764V41.1577C109.764 39.6325 109.586 38.8855 108.471 38.8855C107.123 38.8855 106.797 39.8037 106.797 41.6402V50.8149H103.497V31.6484V31.6562Z" fill="#003767"></path><path id="Vector_32" d="M124.568 45.8735C124.568 46.0758 124.591 46.2548 124.591 46.4337C124.591 49.7488 123.073 51.1962 119.718 51.1962C117.968 51.1962 116.775 50.7915 115.992 49.8188C114.753 48.3169 114.722 46.2003 114.722 43.1421C114.722 40.5663 114.799 38.7609 115.814 37.5314C116.651 36.512 117.999 36.0295 119.796 36.0295C121.593 36.0295 122.84 36.5665 123.677 37.6559C124.591 38.8777 124.669 40.5897 124.669 42.9864V44.0837H118.146C118.123 44.3638 118.123 44.6673 118.123 45.0019C118.123 47.5777 118.502 48.6982 119.773 48.6982C121.043 48.6982 121.446 47.8033 121.446 45.8735H124.568ZM121.345 41.7958V41.1811C121.345 39.3446 121.012 38.582 119.718 38.582C118.425 38.582 118.092 39.3679 118.092 41.1811C118.092 41.2589 118.115 41.4612 118.115 41.7958H121.337H121.345Z" fill="#003767"></path><path id="Vector_33" d="M126.56 36.4187H129.728V38.761C130.588 36.9245 131.502 36.0607 133.075 36.0374V40.0916C132.718 40.0372 132.439 40.0372 132.238 40.0372C130.789 40.0372 129.929 40.9788 129.929 42.3795V50.8149H126.552V36.4187H126.56Z" fill="#003767"></path><path id="Vector_34" d="M146.197 36.4187H149.443V37.8738C150.125 36.6755 151.14 36.0374 152.433 36.0374C154.486 36.0374 155.656 37.2357 155.656 39.5002V50.8149H152.457V41.1577C152.457 39.6014 152.154 38.8621 151.062 38.8621C149.869 38.8621 149.513 39.7804 149.513 41.6402V50.8149H146.189V36.4187H146.197Z" fill="#003767"></path><path id="Vector_35" d="M99.5771 36.4187H102.304V39.5859H99.5771V50.8227H96.2537V39.5859H93.5811V36.4187H96.2537V31.6562H99.5771V36.4187Z" fill="#003767"></path><path id="Vector_36" d="M89.2428 36.3952V45.8968C89.2428 47.8188 88.7315 48.706 87.5153 48.706C86.2991 48.706 85.7878 47.8111 85.7878 45.8734V36.3875H82.6426V46.4337C82.6426 49.7487 84.1609 51.1961 87.5153 51.1961C90.8697 51.1961 92.388 49.7409 92.388 46.4337C92.388 46.3481 92.388 36.3875 92.388 36.3875H89.2428V36.3952Z" fill="#003767"></path><path id="Vector_37" d="M138.024 51.204C139.295 51.204 140.178 50.6671 140.736 49.601V50.597C140.736 50.7371 140.736 50.8694 140.736 51.0017H144.044C144.059 50.5893 144.067 50.1535 144.067 49.6788V36.4265H140.922V37.9284C140.387 36.6833 139.403 36.0452 138.009 36.0452C135.065 36.0452 134.229 38.3097 134.229 43.5623C134.229 48.815 134.941 51.2118 138.032 51.2118M139.117 38.7921C140.612 38.7921 140.844 39.936 140.844 42.6908C140.844 46.6439 140.798 48.3948 139.117 48.3948C137.699 48.3948 137.591 46.9707 137.591 43.858C137.591 40.3173 137.668 38.7843 139.117 38.7843" fill="#003767"></path></g></g></g></g><defs><clipPath id="clip0_4043_62320"><rect width="163" height="87" fill="white"></rect></clipPath></defs></svg>