<?xml version="1.0" encoding="UTF-8"?><svg id="Layer_1" xmlns="http://www.w3.org/2000/svg" viewBox="0 0 93 93"><defs><style>.cls-1{fill:#e31b23;}.cls-1,.cls-2{stroke-width:0px;}.cls-2{fill:#fff;}</style></defs><path class="cls-2" d="m88.07,68.91l.85-2.58,1.14-3.47h-.03c1.91-5.1,2.96-10.61,2.96-16.37C93,20.82,72.18,0,46.5,0S0,20.82,0,46.5s20.82,46.5,46.5,46.5h46.5v-24.09h-4.95s.02,0,.02,0Z"/><path class="cls-1" d="m60.1,80.39c-.69,0-.9.54-.91.85h1.78c-.1-.56-.34-.85-.87-.85Z"/><path class="cls-1" d="m73.15,82.53c0,.41.32.51.67.51.86,0,.89-.68.89-.92v-.41c-.19.16-.57.17-.91.23-.34.07-.65.19-.65.59Z"/><path class="cls-1" d="m55.97,80.39c-.69,0-.9.54-.91.85h1.78c-.1-.56-.34-.85-.87-.85Z"/><path class="cls-1" d="m46.77,79.04c-1.09,0-1.5.93-1.5,1.89s.41,1.85,1.5,1.85c.18,0,.4,0,.49-.08l-.52-.47.56-.6.63.57c.2-.28.34-.69.34-1.27,0-.96-.41-1.89-1.5-1.89Z"/><path class="cls-1" d="m82.52,82.94c.73,0,.94-.63.94-1.29s-.23-1.27-.94-1.27-.96.62-.96,1.27.29,1.28.96,1.28Z"/><path class="cls-1" d="m76.64,73.7c-6.21,0-10.89-3.67-10.89-10.14,0-1.9.47-3.67,1.31-5.2h-2.46v14.85h-7.41v-14.85h-1.78c.11.82.1,1.69.1,2.54v7.97c0,1.46.07,3.11.9,4.34h-7.56c-.19-.52-.3-1.31-.26-1.83h-.07c-1.57,1.8-3.85,2.32-6.25,2.32-2.08,0-3.96-.56-5.22-1.75v1.26c-1.5,0-3.18.22-4.75.22-3.14,0-6.62-.49-6.62-5.8v-9.28h-3.29v-4.56h3.29v-5.91h7.41v5.91h3.97v3.03c.6-1.1,1.52-1.87,2.64-2.39,1.87-.9,4.34-1.12,6.62-1.12,4.34,0,6.63.84,7.84,2.12v-1.64h3.03c-.07-1.91.11-4.04,1.53-5.46,1.61-1.61,3.48-1.83,6.47-1.83,1.12,0,2.21.11,3.33.15v5.09c-.6-.07-1.2-.26-1.8-.26-1.8,0-2.39.52-2.28,2.32h3.89v2.76c1.8-2,4.45-3.25,7.65-3.25,5.53,0,8.81,2.22,10.22,6.27,1.35-4.11,2.09-8.51,2.09-13.07,0-23.09-18.72-41.81-41.81-41.81S4.69,23.41,4.69,46.5s18.72,41.81,41.81,41.81h41.81v-14.72h-9.92c-.57.07-1.16.11-1.75.11Zm-27.19,9.88l-.56.59-.78-.71c-.36.21-.82.32-1.34.32-1.71,0-2.71-1.27-2.71-2.86s1-2.91,2.71-2.91,2.71,1.27,2.71,2.91c0,.8-.25,1.51-.72,2.03l.69.63Zm4.18.08h-1.04v-.56h-.02c-.28.45-.76.66-1.22.66-1.17,0-1.46-.66-1.46-1.64v-2.46h1.1v2.25c0,.66.19.98.7.98.59,0,.85-.33.85-1.14v-2.09h1.1v3.99Zm2.42-.72c.44,0,.8-.27.86-.52h.96c-.31.94-.96,1.34-1.87,1.34-1.26,0-2.04-.86-2.04-2.1s.83-2.11,2.04-2.11c1.36,0,2.01,1.14,1.94,2.37h-2.88c.03.69.37,1.01.98,1.01Zm4.13,0c.44,0,.8-.27.86-.52h.96c-.31.94-.96,1.34-1.87,1.34-1.26,0-2.04-.86-2.04-2.1s.83-2.11,2.04-2.11c1.36,0,2.01,1.14,1.94,2.37h-2.88c.03.69.37,1.01.98,1.01Zm5.99.72h-1.1v-2.25c0-.66-.19-.98-.7-.98-.59,0-.85.33-.85,1.14v2.09h-1.1v-3.99h1.04v.56h.02c.28-.45.76-.66,1.22-.66,1.17,0,1.46.66,1.46,1.64v2.45Zm2.22.11c-.93,0-1.83-.35-1.88-1.4h1.04c0,.48.41.67.84.67.32,0,.72-.12.72-.51,0-.33-.46-.45-1.24-.62-.63-.14-1.27-.36-1.27-1.06,0-1.02.88-1.28,1.74-1.28s1.68.29,1.76,1.27h-1.04c-.03-.42-.36-.54-.75-.54-.25,0-.61.05-.61.37,0,.39.62.45,1.24.59.64.15,1.27.38,1.27,1.12,0,1.05-.91,1.39-1.82,1.39Zm3.29-.11h-1.1v-5.51h1.1v5.51Zm3.16,0c-.04-.12-.07-.25-.08-.39-.35.36-.86.49-1.34.49-.76,0-1.36-.38-1.36-1.2,0-.9.68-1.12,1.36-1.21.67-.1,1.3-.08,1.3-.52,0-.47-.32-.54-.71-.54-.42,0-.69.17-.73.6h-1.1c.06-1.03.98-1.34,1.88-1.34.79,0,1.75.18,1.75,1.14v2.08c0,.36.04.73.14.89h-1.11Zm7.39-4.1c.47,0,.93.2,1.18.59h.02v-2.01h1.1v5.51h-1.04v-.51h-.02c-.25.43-.7.62-1.21.62-1.2,0-1.79-1.03-1.79-2.14s.59-2.07,1.77-2.07Zm-2.13,1.64v2.45h-1.1v-2.25c0-.66-.19-.98-.7-.98-.59,0-.85.33-.85,1.14v2.09h-1.1v-3.99h1.04v.56h.02c.28-.45.76-.66,1.22-.66,1.17,0,1.46.66,1.46,1.64Z"/><path class="cls-1" d="m45.99,57.69c-2.28,0-2.73,1.16-2.77,1.98h-6.88c.02-.47.08-.9.17-1.31h-3.4v6.77c0,1.8.41,2.58,2.28,2.58.02,0,.04,0,.06,0,.09-6.02,7.2-5.8,10.96-6.51,1.01-.19,2.02-.49,2.02-1.72,0-1.31-1.23-1.8-2.43-1.8Z"/><path class="cls-1" d="m43,67.53c0,.9.97,1.8,2.32,1.8,1.68,0,2.99-1.01,3.11-3.03v-1.8c-.9.45-1.91.71-2.92.94-1.65.37-2.51.78-2.51,2.09Z"/><path class="cls-1" d="m76.68,58.06c-2.21,0-3.48,1.16-3.82,3.26h7.07c0-1.8-1.35-3.26-3.25-3.26Z"/><path class="cls-1" d="m76.6,68.95c1.2,0,2.51-.45,3.1-1.38h2.91c.46-.78.89-1.58,1.3-2.39h-11.09c.19,2.21,1.46,3.78,3.78,3.78Z"/></svg>